/* XPM */
static char *_d957ec95bc14dadbcfeefabf7968e4cMfwLY4EgNr95Bkz3[] = {
/* columns rows colors chars-per-pixel */
"32 32 206 2 ",
"   c None",
".  c #04080D",
"X  c #04060B",
"o  c #060E15",
"O  c #040D1C",
"+  c #07121B",
"@  c #08121B",
"#  c #0F191F",
"$  c #15191B",
"%  c #020F22",
"&  c #051324",
"*  c #0B1623",
"=  c #0D1923",
"-  c #0D1C2C",
";  c #01142B",
":  c #101C26",
">  c #1C1F24",
",  c #111E2A",
"<  c #041A33",
"1  c #0C1D33",
"2  c #031B38",
"3  c #111F34",
"4  c #13222E",
"5  c #1C262B",
"6  c #06213E",
"7  c #0C213A",
"8  c #142433",
"9  c #192A36",
"0  c #14263D",
"q  c #16293C",
"w  c #1B2D3C",
"e  c #182836",
"r  c #1E303F",
"t  c #232220",
"y  c #242C34",
"u  c #24343E",
"i  c #2C373F",
"p  c #333A3C",
"a  c #383832",
"s  c #4C3D26",
"d  c #5C4B2C",
"f  c #554528",
"g  c #504C3C",
"h  c #614E2D",
"j  c #63522E",
"k  c #6C5C34",
"l  c #6B5D3D",
"z  c #685836",
"x  c #6E6035",
"c  c #74613B",
"v  c #79673F",
"b  c #7C6A3C",
"n  c #766336",
"m  c #052242",
"M  c #092442",
"N  c #0A2A4D",
"B  c #092848",
"V  c #132642",
"C  c #162D44",
"Z  c #1A2C42",
"A  c #142D4B",
"S  c #1B2D48",
"D  c #1E3242",
"F  c #16314C",
"G  c #1C334B",
"H  c #0B2C51",
"J  c #082D55",
"K  c #112D54",
"L  c #163354",
"P  c #1F3954",
"I  c #12345E",
"U  c #1E3654",
"Y  c #223545",
"T  c #253946",
"R  c #223649",
"E  c #253A4C",
"W  c #2A3D4C",
"Q  c #2A3743",
"!  c #253D54",
"~  c #293E54",
"^  c #203A59",
"/  c #133561",
"(  c #163963",
")  c #1A3A64",
"_  c #1D3F6C",
"`  c #2C414D",
"'  c #3D4244",
"]  c #36434D",
"[  c #2D4453",
"{  c #2D455B",
"}  c #2F485E",
"|  c #274058",
" . c #304655",
".. c #314956",
"X. c #314759",
"o. c #344B5B",
"O. c #3B4A50",
"+. c #39525F",
"@. c #1E416D",
"#. c #22436B",
"$. c #344D62",
"%. c #375165",
"&. c #3C5464",
"*. c #3B5569",
"=. c #3E586A",
"-. c #254571",
";. c #2A4A75",
":. c #2D4B78",
">. c #37567D",
",. c #464A4E",
"<. c #444648",
"1. c #454D53",
"2. c #494E53",
"3. c #4C545A",
"4. c #485659",
"5. c #565A5A",
"6. c #545954",
"7. c #575443",
"8. c #695B46",
"9. c #735F41",
"0. c #5E614E",
"q. c #5A665F",
"w. c #6B614F",
"e. c #6A684B",
"r. c #756A46",
"t. c #7D6C46",
"y. c #7B6D4F",
"u. c #73634B",
"i. c #6A6858",
"p. c #746A57",
"a. c #7E6E52",
"s. c #726B5E",
"d. c #7E725C",
"f. c #435B6B",
"g. c #4A5D67",
"h. c #575C62",
"j. c #425C71",
"k. c #455E77",
"l. c #4D616B",
"z. c #466169",
"x. c #466170",
"c. c #4B6573",
"v. c #4B6677",
"b. c #526876",
"n. c #5A6C75",
"m. c #5A727F",
"M. c #57717B",
"N. c #676B6A",
"B. c #787164",
"V. c #78756B",
"C. c #6A6D72",
"Z. c #626D75",
"A. c #6B7273",
"S. c #65737B",
"D. c #757676",
"F. c #7C7A73",
"G. c #76797B",
"H. c #7D7D7D",
"J. c #777776",
"K. c #6C7363",
"L. c #80704A",
"P. c #897555",
"I. c #8B795C",
"U. c #87795E",
"Y. c #8C7D63",
"T. c #877E6E",
"R. c #917E62",
"E. c #847D73",
"W. c #817F7B",
"Q. c #9D8E52",
"!. c #938658",
"~. c #8C875D",
"^. c #8E8366",
"/. c #85856F",
"(. c #968567",
"). c #9F936C",
"_. c #818774",
"`. c #83817B",
"'. c #968B71",
"]. c #9A997A",
"[. c #A79966",
"{. c #B2A46B",
"}. c #B7AB75",
"|. c #395681",
" X c #426083",
".X c #4A658A",
"XX c #486288",
"oX c #5D7481",
"OX c #607884",
"+X c #637B98",
"@X c #6B828C",
"#X c #7B8486",
"$X c #7F8F93",
"%X c #7E9095",
"&X c #7289A1",
"*X c #7C93A9",
"=X c #808484",
"-X c #8A9A9A",
";X c #8C9587",
":X c #889AA9",
">X c #C2B682",
",X c #AAB7C4",
"<X c #B2BFCD",
"1X c #CED7DD",
"2X c #E5E8EA",
"3X c white",
/* pixels */
"                        OX`.H.H.H.H.H.H.                        ",
"                  H.H.F.V.d.w.w.w.i.s.V.H.H.H.                  ",
"              H.H.F.p.z j h h f s s s 9.9.B.D.H.H.              ",
"            H.F.p.l z j j j h d t # > 8.9.8.9.B.H.H.            ",
"          H.F.r.x x k k z z 9.g * O % a u.L.P.P.d.E.OX          ",
"        H.F.t.n n n n c c u.P.g % % % * w.Y.R.R.P.P.T.H.        ",
"      H.F.v x b b b b n L.R.Y.u ; < < < Q Y.R.R.I.P.U.E.H.      ",
"    W.F.a $ $ a g l b L.L.R.B.1 2 6 6 m 2 5.'.T.p.8.8.d.W.H.    ",
"    `.<.X . @ 9 Q Q p 7.y.).4.2 N J J J N C W u 3 : > P.E.H.    ",
"  `.N.: . o o : 8 9 Z 9 T 1.F H I ) #._ / K m 2 - & a (.Y.W.H.  ",
"  H.,.. . o @ : : * - - 1 m H I _ |..X X-./ N 2 3 1 i 6.U.E.H.  ",
"  F.Q * & , 3 3 8 1 1 2 7 N I @.>.*X1X,X.X-.I N L V 0 ] s.V.F.  ",
"H.C.D 0 1 V Z S S A B A A K ) :.XX<X3X2X+X:.) ) ^ ^ ^ ~ { ~ C.W.",
"=Xh.q 8 3 3 q q Z S 0 G L H / #.|.:X2X,XXX-.I L ^ S S S D Z h.H.",
"H.3.' 5 + * , W 3 Z Z Z G N N ( ;..X&X+X>.I N L ! C 8 q : # <.H.",
"H.B.!.e.5 : : Y e e D Z G V M H I ;. X|./ N N U { E , 3 : o W W.",
"H.^.Q.Q.0.r r 4 4 8 9 R | ^ F B N J ) #.N B F D ! ! , 4 = + ' H.",
"H.^.Q.Q.K. .[ Y Y [ [ T ! $.{ P F N H | U P G G ! R 4 8 4 = <.H.",
"H./.!.K.M.b.M.o.&.l.%.[ c.f.| $.%.*.f.v.=.$.G D W w 4 8 , + 6.H.",
"H._.q.&.x.z.oXoXf.*.%.{ f.&.} $.$.*.=.j.%.{ E D Z e W 4 * # N.H.",
"  G.g.o.o.@XM.@XoXf.$.[ ..R [ v.$.$.=.*.%.{ E r 8 e r , * y D.  ",
"  H.S.f.v.:X@X-X;Xn. .Z R D [ o.! { } %.=.v.&.` W 9 9 r e 3.H.  ",
"  H.G.l.l.%X;X].[.K.{ W Y T ..%.{ $.| { W ..[ ` &.o.[ o.g.G.H.  ",
"    H.1.4 9 D 2.[._.x.+.w T | %.%.*.} %.E [ ..{ &.f.f.oX#XH.    ",
"    F.D.Q 8 9 O.{.].f.o.T r E o.%.o.$.[ Z w y ~ f.v.OX=XOX`.    ",
"      H.A.] D 6.{.}.l.[ z.9 9 T o.{ E u w Y E ~ f.j.S.=X=X      ",
"        H.C.6.~.}.>XA.o...8 4 4 w e 8 r [ +. .o.g.C.H.=X        ",
"          `.`.).{.}./.[ ` 4 # # = 4 ` g.T f.b.k.n.OXH.          ",
"            H.`.'.[._.W Y 9 + + = 9 } [ ~ f.b.Z.H.`.            ",
"              H.H.`.#X4.T : # @ 9 T u ` g.S.G.W.W.              ",
"                  H.H.G.N.5.2.,.3.3.h.A.W.H.=X                  ",
"                        H.=X#XW.H.H.#X`.                        "
};
