/* XPM */
static char *_2c81b03a2654832e04f1606fc22ff2aL7TroHCWvtoMhGCZ[] = {
/* columns rows colors chars-per-pixel */
"64 64 236 2 ",
"   c None",
".  c #020305",
"X  c #03080C",
"o  c #050C14",
"O  c #040D1C",
"+  c #090E15",
"@  c #07111A",
"#  c #0A141C",
"$  c #081218",
"%  c #13181B",
"&  c #041223",
"*  c #0B1622",
"=  c #0D1A25",
"-  c #03152B",
";  c #0D1C2B",
":  c #07182C",
">  c #111C25",
",  c #111E2B",
"<  c #1A1A20",
"1  c #041A35",
"2  c #0C1D33",
"3  c #051E3B",
"4  c #051A36",
"5  c #101F3B",
"6  c #13212D",
"7  c #1B242B",
"8  c #06213C",
"9  c #0B223C",
"0  c #0F2034",
"q  c #142433",
"w  c #172834",
"e  c #1A2A35",
"r  c #13253B",
"t  c #15293D",
"y  c #1A2C3B",
"u  c #182734",
"i  c #1E303D",
"p  c #24272A",
"a  c #373429",
"s  c #262D38",
"d  c #27343C",
"f  c #393C38",
"g  c #302F22",
"h  c #26231E",
"j  c #433B2C",
"k  c #5D4C2C",
"l  c #594827",
"z  c #494437",
"x  c #564D37",
"c  c #5D5135",
"v  c #604E2A",
"b  c #64522D",
"n  c #645433",
"m  c #6B5B33",
"M  c #6C5B3C",
"N  c #685635",
"B  c #715F37",
"V  c #604F34",
"C  c #746236",
"Z  c #75633B",
"A  c #7C6A3C",
"S  c #78663A",
"D  c #6F623C",
"F  c #052443",
"G  c #0B2543",
"H  c #06284C",
"J  c #0B2A4C",
"K  c #082748",
"L  c #132642",
"P  c #152B44",
"I  c #1B2D43",
"U  c #142E4B",
"Y  c #1C2E4A",
"T  c #1E3243",
"R  c #1C334C",
"E  c #173049",
"W  c #062B53",
"Q  c #0B2D54",
"!  c #0B2E5A",
"~  c #112D56",
"^  c #0D315C",
"/  c #0E3055",
"(  c #1B3452",
")  c #12335D",
"_  c #1C3759",
"`  c #223444",
"'  c #22364A",
"]  c #253A4C",
"[  c #2A3D4C",
"{  c #283845",
"}  c #253C53",
"|  c #293E52",
" . c #233B5A",
".. c #253B57",
"X. c #133562",
"o. c #193A65",
"O. c #1B3C69",
"+. c #163965",
"@. c #203F63",
"#. c #2C414E",
"$. c #27404E",
"%. c #394549",
"&. c #2B4354",
"*. c #2C455B",
"=. c #2F495D",
"-. c #294354",
";. c #314655",
":. c #324A55",
">. c #334B5C",
",. c #374857",
"<. c #3C525D",
"1. c #38535C",
"2. c #1E406C",
"3. c #1F4170",
"4. c #284567",
"5. c #344D62",
"6. c #374F63",
"7. c #365164",
"8. c #3A5364",
"9. c #3C556A",
"0. c #3E596C",
"q. c #3B5666",
"w. c #254572",
"e. c #2A4A75",
"r. c #2A4976",
"t. c #34527D",
"y. c #3A5779",
"u. c #314E79",
"i. c #464948",
"p. c #4B5459",
"a. c #565A5A",
"s. c #4E5250",
"d. c #695C46",
"f. c #735E43",
"g. c #57615D",
"h. c #6C624B",
"j. c #7A6A4C",
"k. c #786745",
"l. c #696557",
"z. c #766A55",
"x. c #7B745A",
"c. c #7F7244",
"v. c #425B6C",
"b. c #465A66",
"n. c #445D71",
"m. c #425D7E",
"M. c #545A65",
"N. c #47636D",
"B. c #576269",
"V. c #476172",
"C. c #4C6474",
"Z. c #4D6974",
"A. c #536C7A",
"S. c #556976",
"D. c #5B727D",
"F. c #56747D",
"G. c #686A69",
"H. c #76736D",
"J. c #787468",
"K. c #696E71",
"L. c #6C7479",
"P. c #7C7B7A",
"I. c #7D7C7A",
"U. c #7D7D7D",
"Y. c #7D7E7E",
"T. c #7D7D7C",
"R. c #767877",
"E. c #716D64",
"W. c #82713D",
"Q. c #806B3D",
"!. c #816E4A",
"~. c #81724A",
"^. c #847254",
"/. c #8D7B5D",
"(. c #877758",
"). c #8B7758",
"_. c #8D7D63",
"`. c #837A67",
"'. c #917E61",
"]. c #817E77",
"[. c #7A8274",
"{. c #8C8557",
"}. c #9C8D52",
"|. c #96895A",
" X c #9C8F51",
".X c #A7975D",
"XX c #A28D52",
"oX c #8A8466",
"OX c #948364",
"+X c #99886A",
"@X c #9C9467",
"#X c #868475",
"$X c #998C73",
"%X c #9A997B",
"&X c #AC9C63",
"*X c #A69967",
"=X c #AD9C6E",
"-X c #ADA369",
";X c #B6A772",
":X c #C5B57C",
">X c #C0AF74",
",X c #3B5882",
"<X c #425B84",
"1X c #486488",
"2X c #516C8A",
"3X c #5D7582",
"4X c #5A7983",
"5X c #567492",
"6X c #596E91",
"7X c #637C86",
"8X c #677C87",
"9X c #6F7D8C",
"0X c #6C848C",
"qX c #65858B",
"wX c #748388",
"eX c #6B8699",
"rX c #748C95",
"tX c #7B959B",
"yX c #7689A3",
"uX c #7693A6",
"iX c #848C8C",
"pX c #84969B",
"aX c #9E9F8C",
"sX c #8598AA",
"dX c #96A9AC",
"fX c #94ACB0",
"gX c #A5B3B1",
"hX c #AAA98E",
"jX c #C6B983",
"kX c #B3C4BD",
"lX c #AFBBC6",
"zX c #B6C5CA",
"xX c #FEFEFD",
"cX c #F1F4F4",
"vX c #E9EDF0",
"bX c #D3D7DD",
/* pixels */
"                                                    P.P.].].P.].].].].P.P.P.                                                    ",
"                                            P.I.U.U.U.U.9X].].9X].9X].9XP.U.].9XP.P.                                            ",
"                                        I.U.U.U.].wXU.P.I.R.H.H.H.H.R.P.].9X].].U.U.U.U.                                        ",
"                                  ].].9XU.U.U.I.H.l.d.d.V V k l v k k V N d.E.H.].U.U.U.Y.9X].                                  ",
"                                P.T.T.[.[.J.h.N v v v v v v l l l v l j k k V f.d.z.H.U.P.].U.U.                                ",
"                            I.U.Y.Y.P.E.h.n v v v v v v v l l l l j j j a V f.f.f.N d.h.E.9XU.U.].].                            ",
"                          I.U.U.[.J.h.N N N b b b b b b v v k v j % h < O j f.f.f.f.f.d.f.f.`.U.9X].P.                          ",
"                      I.U.U.U.R.j.m b m m m b n b b b b b v V x < X o O O # x k.f.f.f.f.f.f.f.E.].].9X].].                      ",
"                    I.U.U.I.J.D m m m m m m m m N N N N N M d.j + O O O O O < f.f.f.f.z.!.j.f.!.z.].9X].].].                    ",
"                  ].I.].I.x.C m B C C m C m m M B B N M f.j.^.a + O O O O O & i.z.!.^.).^.^.^.).^.f.^.R.].9XI.                  ",
"                I.U.9XP.x.S S S C C B C C C C C B B B f.!._.^.7 O & & & O & O > h.^._._.'.).'.'./.!.j.`.I.9XP.].                ",
"              ].U.U.].^.A A A S C C B S C C C S f.f.k.^./._.h.* & & & & - - - - f _._._.'.'.'.'.'.^.!.!.^.].].].].              ",
"              ].9X[.x.W.W.W.W.A A S S A Q.S Z k.k.k.).|.'.OXi.& - - - - - 4 - - 2 l.'.'.$X'.'.+X/.^.!.^.!._.].9XU.              ",
"            9X].].{.W.S b C A W.A A A A A S S k.!.!.OXOXOX'.s : - - 4 4 4 4 4 4 4 s `.$X$X$X$X'.'.).^.^.).).`.I.U.U.            ",
"          ].9X[.E.z a % + % g c A c.W.!.!.S A c.c.!.).+X$XJ.; 1 4 4 3 3 3 3 3 3 4 4 ,.'.$X$X$X+X'.'./.'.'./.^.].U.U.U.          ",
"          ].].H.h . . . $ = # e { j x M S !.~.j.!.!.).+X%Xi.1 4 3 F F F F H H F G 3 5 `.$X$X+X`.z.d.s.d.z f k._.].U.U.          ",
"        ].].].f . . . X $ * e :.:.i 6 7 a x h.c.~.~.OX=X$Xr 1 F F H W W W W W W J G 8 [ M.i.d q ; & O O o O d.'._.U.U.U.        ",
"      ].].9Xa.+ . o + X + # 6 y e :.1.] T w d i.h./.=XhXa.3 F K H W W ! X.^ ^ ^ Q J K G G 3 2 : 5 s & * # p ).OX/.].U.U.I.      ",
"      9XP.R.p X . % + X o # * > 6 6 w w T ` T T ' %.E.[.[ K J J W X.^ +.O.O.+.+.) ^ / K F 8 4 9 : ; : O * i.OXOXOX_.U.U.U.      ",
"      ].9Xa.% < . X $ o o # * > 6 6 q y T i t r t t t L U J Q / ) 2.2.3.w.3.w.3.o.) ) Q H 8 3 5 : - : * : h.+XOXOX_.].I.U.      ",
"    U.].].s . . . X o o + & > 6 u , , > : * & ; 2 2 8 G J J Q X.+.2.e.e.,X,X,X,Xw.2.+./ H F 3 4 4 : 1 * u a._.J.'.'.`.].U.U.    ",
"    U.U.G.% X . . o $ o O * > 6 > O & O # : y 1 2 4 8 G J ) ) o.3.e.,X1X2X5X1X1Xt.w.o.+.! H F 8 L Y q : 6 ` d s l.'._.].U.U.    ",
"  Y.].].i.q > O o # > * : > , 6 , ; & 2 ; 1 r 1 9 9 G K Q ) +.3.w.,X2XuXlXzXfX9X1Xe.e.o.^ ~ H F Y ' L 9 r I d l.+XOX_.].U.U.I.  ",
"  U.9XR.{ q , : * : 5 I q 5 5 I L I 5 5 2 2 2 3 G J J Q ) O.4.w.,X<XeXzXxXxXcXlX9X,Xt.w.o.! ~ ~ ~ ( R P t L #.p.a.G.E.E.P.U.U.  ",
"  ].].L.` 5 q 5 2 2 r I t L I Y I L 5 L G L G G J J ~ ~ X.O.w.t.,X1XsXcXxXxXxXvXyX<X,Xr.O.X.X._  ._  .( ( Y P L r Y } I G.Y.].  ",
"  9X].B.Y P Y L 5 5 r I L Y Y Y Y L (  .J L Y  .~ ~ ~ ) X.2.w.t.,X1XuXvXxXxXxXvXyX,Xu.r.O.X.X.4.4. ._  ._ *.5.v.6.v...Y M.Y.Y.  ",
"R.].9Xp.t I y r 5 5 5 r t P I I I Y ..Y L P U  .( J ~ ~ X.O.3.u.,X,XyXbXxXxXvXlX5X,Xe.w.O.X.)  .4.( U (  .R E -.} } 5.5 i.].Y.P.",
"9X].].{ u R 6 6 * * , q q r t I r 0 I ' 0 r P T U U J J W ) 2.w.,X,X1XsXbXbXlX9X,X,Xe.+.X.~ J J ( ( r L I Y t r r 6 q ; ` P.9XP.",
"].].R.s t [ 6 % # O * * * u i q 6 2 q I y 2 T E Y Y ( K J ) 2.2.w.t.,X1XuXyXyXeX,X,X2.^ ^ K K ( ....P 2 0 t q q , = = O 7 R.9X].",
"].9XK.s i.j.d # # + # * # 6 N.:.q > y } ] y I t ' | E K K W ) ) 3.,X,X2XuX6X2XuXV.w.) ! H K J *.*.*.] r ; u ` q > > * O , H.].R.",
"].U.K.s.{.XXx.d $ # = > * * 1.<.r q q I ' R T t P R 9 8 8 K W W ^ O.e.1X5XV.,Xy.w.^ Q W J J _ *.*.-.} y 0 ; y y , * + O < G.U.].",
"R.].]./.}.}.}.x.{ > > q 6 % > e y u , y T I r T } R T 9 8 F J J W ^ +.2.e.1X2Xu.! ! H K G E R ( } 9.7.I 6 : q , ; * O + # G.].9X",
"U.I.].|.}.}. X Xx.%.y e y 6 % , q q ; u I y r | &.} } } U P 8 J J W / ^ X.y.y.u.Q H F F ( ..L P R =.N.` ; ; , = = = @ @ # G.P.P.",
"U.I.#X}. X X}. X}.p.&.` ` &.w 6 , = ; u w w I | 5.4.5.4.-.U 8 F H H H W W 2._ @.K K 3 3 ..' t P ' ] } T ; , r , = = # @ % G.[.Y.",
"U.U.].}.}.XX X Xx.#.[ i &.&.` u 6 6 ` ' { ] ' ` | -.5.5.*._ U U F F F J H / W E F 3 R } ..T P } *.-.} T = q q q = 6 7 = % G.9XP.",
"U.U.[.|. X X X|.H.D.<.d :.>.*.y ] -.q.7.C.>.T ` ` } *.*.=.5.4.5.} U U J 8 E 4.5...*.7.*...I R ' } | -.y = q q q , 6 7 @ < R.I.P.",
"I.U.U.|. X X|.l.F.qX0XqXn.q.>.` 8.0XqXv.V.>.] -.7.:.=.-...=.5.5.7.7.y.9.q.V.C.A.2Xv.5...' T I ` [ | | q , q u 6 6 6 * o p P.I.P.",
"U.U.U.oX X|.B.:.F.N.N.L.7X3XS.{ { 7.q.7.5.7.>.-.3XsXeX0.*.} =.5.5.5.0.0.Z.2XV.C.n.9.5...} T I ' } | T ; u u q 6 6 = # o %.U.I.R.",
"  ].U.#X{.Z.=.N.0XN.*.>.S.8X8Xn.v.v.v.7.6.#.&.-.0.qXZ.q.5.*.=.4.4.5.7.9.0.y.V.m.9.5.4.*...T y ` ' I , , q y e 6 , = @ @ s.].U.  ",
"  Y.Y.[.g.1.` Z.Z.7.A.Z.C.S.rX7Xv.v.v.v.v.q.1.$.` *.*.>.>.*.5.5.4.*.7.9.0.0.0.0.7.=.=.-.>.] r T T u q y :.Z.e % = # $ % G.9XT.  ",
"  9X9X].p.5.;.0.&.] 3XtX0XD.0XtXA.6.b.n.5.=.6.b.v.b.T ] -.-.C.rXv.-.*.9.y.0.n.7.5.5.} ( } ` y ` u ; t T ,.#.* # = # O p R.].I.  ",
"  ].].].S.3X>.[ :.*.7XtXZ.C.3XrX9X7Xn.A.6.;.` ] ,.' T ` ] -.8.F.V.] *.0.9.n.7.*.v.5.5.-.R ` ` y 6 6 u w 6 = > 6 ; = # %.9X].I.  ",
"    ].].L.Z.-.[ 1.N.fXtXC.F.0XdXpX0XA.v.&.[ y q { ' r y T | 5.*.' } 4.5.5.7.-.A.rX=.v.qXN.-.` [ ` 6 6 6 6 = w w 6 > 6 G.U.U.    ",
"    I.9X9XL.4Xv.v.F.zXpX0XpXgXdXaX@X#XS.5.&.| w T >.` ` =.9.v.*.] -.*.-.-.*.| 9.q.-.q.tX3X] | 1.0.#.w t i #.[ ` { i %.[.U.U.    ",
"      I.I.L.qXqXF.tXgXkXzXgXaX%X*X.X@XM.=.*.| y u ,.} y ;.v.5.-.-.*.=.-.-.*.} >.-.' -.>.&.&.>.#.>.D.V.{ ` ;.>.[ I p.L.].U.      ",
"      I.I.P.%.d #.<.S.0X0X[.oX*X&X*X{.<.;.*.*.[ u ` ;.y ` 7.5.>.*.5.9.q.5.} >.5.] T :.i T | ] w >.0.b.&.[ b.7.8.b.wXY.Y.U.      ",
"      P.9X[.B.6 > , w y i #.#.x..X*X@XZ.N.&.&.8.` r &.` R 5.>.v.*.>.A.9.-.-.5.9.] y q.N.1.q.>.| 9.9.9.v.v.n.n.A.rXiXY.Y.9X      ",
"        ].T.T.f > ; 6 w e i T p.{.&X;X8X4X4XZ.:.s u ` ] [ >.7.7.=.7.q.=.5.5.7.9.*.T ` :.-.&.b.&.>.n.v.9.6.8.D.pXiX9X].].        ",
"          U.U.K.p > 6 6 6 i T <.|.:X:X[.Z.<.q.N.i w w &.] T q.7.=.5.5.>.9.>.=.#.r d [ ` q 0 ` b.7.C.A.v.v.7XtXwXT.T.U.          ",
"          P.U.U.a.e { 6 w e ` g.-X:XjX[.N.-.` 8.1.w 6 ` { i 7.7.7.5.>.5.7.>.=.y y ` y q y d I ,.Z.C.C.C.8XpXdXiXT.T.U.          ",
"            T.U.U.a.] y T d ' E.-X;X:X%XA.>.` ] qX1.6 q $.w i >.q.9.7.7.7.' -.i y q w T ` ` ;.] b.n.D.D.A.9XiXY.T.U.            ",
"              T.U.U.b.{ ] T $.oX-X-X:X:XL.q.` :.qXZ.d 6 w i 6 i &.&.&.&.` y ` i u { &.#.] } | ;.9.b.>.*.M.9XY.].U.              ",
"              P.I.].P.p.] e s.&X-X;XjXjXR.b.` b.#.i w 6 ; 6 w e #.] y q w 7 q w y { >.] ' ] *.6.v.C.C.C.K.Y.Y.Y.9X              ",
"                I.].9XP.E.[. X-X-X:XjXjX%XZ.:.b.q.#.w w 6 > > 6 6 6 6 , 6 6 w T #.N.F.1.,.>.6.;.6.7X3X8XU.Y.Y.Y.                ",
"                  ].9X].[.$X-X&X&X;X:X>X@XD.&.y N.i 6 > % > > = > > , 6 i b.qXN.,.[ ;.4X7Xb.6Xb.,.8XP.P.Y.U.Y.                  ",
"                    #XU.U.[.#X*X&X-X>X-X@X[.q.6 #.:.w # $ # = = > > q q w :.qX$.i T { 7.n.C.S.C.C.9X].P.U.].                    ",
"                      Y.Y.9X].#X$X&X&X.X*XR.b.q 6 #.:.e $ o + + # * , w $.T N.i T [ >.n.S.S.v.B.P.Y.Y.Y.#X                      ",
"                          ].Y.].I.+X@X.X#X8Xq.u 6 #.y 6 # $ @ o # = , w q.b.N.i ' <.n.C.S.S.K.].9X].Y.                          ",
"                            Y.Y.].9X].+XiXwXb.i -.#.6 * # $ + # w $.:.>.:.T i -.6.n.C.G.L.].].].].].                            ",
"                                ].].9X9XiXU.K.,.$.6 , > ; > * * * ' T i , 6 i :.n.L.R.9XP.9X].9X                                ",
"                                  ].].Y.].9X].P.G.s.[ d p p q u u :.{ s $.p.B.L.].].9X].Y.Y.Y.                                  ",
"                                        ].I.I.].[.iX].].R.L.K.K.K.L.L.R.R.[.U.U.9X].].].                                        ",
"                                            I.9XY.Y.].9XY.Y.[.U.].U.U.U.U.U.U.U.Y.Y.                                            ",
"                                                    ].].Y.Y.Y.U.U.U.T.T.U.U.                                                    "
};
