/* XPM */
static char *_219e6c9b047495aed31a331dba30483GjU697aW8kCP8NQA[] = {
/* columns rows colors chars-per-pixel */
"16 16 208 2 ",
"   c None",
".  c #080C10",
"X  c #07111D",
"o  c #071221",
"O  c #0F1922",
"+  c #0E1923",
"@  c #0F1C27",
"#  c #0F1C2C",
"$  c #111C26",
"%  c #111E27",
"&  c #021935",
"*  c #0F1D30",
"=  c #0F1E33",
"-  c #0C1E34",
";  c #031C39",
":  c #152029",
">  c #162128",
",  c #14202D",
"<  c #19202A",
"1  c #132230",
"2  c #172633",
"3  c #132535",
"4  c #172734",
"5  c #182935",
"6  c #192B37",
"7  c #1B2C37",
"8  c #10263F",
"9  c #18293A",
"0  c #1D2C3F",
"q  c #1E2F3E",
"w  c #373125",
"e  c #272F37",
"r  c #223039",
"t  c #21313C",
"y  c #2D383F",
"u  c #343C3D",
"i  c #4D482F",
"p  c #5B4B2E",
"a  c #514637",
"s  c #645433",
"d  c #695E3C",
"f  c #705E36",
"g  c #736136",
"h  c #74613E",
"j  c #77663F",
"k  c #0B2543",
"l  c #0C2A4F",
"z  c #142A45",
"x  c #182940",
"c  c #182A43",
"v  c #1B2F42",
"b  c #1D2F40",
"n  c #1D3043",
"m  c #163049",
"M  c #1D344B",
"N  c #1F344C",
"B  c #0D2E52",
"V  c #0D2F58",
"C  c #112D51",
"Z  c #113152",
"A  c #133153",
"S  c #143150",
"D  c #1B3651",
"F  c #193552",
"G  c #1C3452",
"H  c #15355E",
"J  c #16365E",
"K  c #203241",
"L  c #203341",
"P  c #213342",
"I  c #203440",
"U  c #233646",
"Y  c #203549",
"T  c #23384B",
"R  c #253949",
"E  c #273B48",
"W  c #24394A",
"Q  c #21384D",
"!  c #23394F",
"~  c #273B4C",
"^  c #283D4E",
"/  c #293E4E",
"(  c #2A3F4F",
")  c #2D3D4D",
"_  c #203E5F",
"`  c #123660",
"'  c #1D3E64",
"]  c #1D3D69",
"[  c #3A4349",
"{  c #3A454D",
"}  c #3C4848",
"|  c #2D4453",
" . c #294157",
".. c #2E4455",
"X. c #2F4656",
"o. c #324652",
"O. c #314856",
"+. c #30475A",
"@. c #364C5B",
"#. c #30485C",
"$. c #31495C",
"%. c #324A5D",
"&. c #324B5F",
"*. c #354E5F",
"=. c #314A60",
"-. c #334D61",
";. c #334C62",
":. c #334D64",
">. c #375165",
",. c #395061",
"<. c #385264",
"1. c #3B5565",
"2. c #3E586E",
"3. c #2F4E75",
"4. c #2F4D76",
"5. c #464C4F",
"6. c #4D4F4C",
"7. c #4C4D4E",
"8. c #514F42",
"9. c #525343",
"0. c #575247",
"q. c #5E5340",
"w. c #475452",
"e. c #40515B",
"r. c #585A52",
"t. c #55575A",
"y. c #55585B",
"u. c #6B5E42",
"i. c #73654E",
"p. c #746650",
"a. c #766851",
"s. c #7B6F51",
"d. c #756E5D",
"f. c #776D5E",
"g. c #405666",
"h. c #425967",
"j. c #475C64",
"k. c #405869",
"l. c #465E6E",
"z. c #4B5C68",
"x. c #585D60",
"c. c #4C606B",
"v. c #5F6263",
"b. c #5C6367",
"n. c #596764",
"m. c #5E666A",
"M. c #5F6968",
"N. c #4C6371",
"B. c #4E6671",
"V. c #5E6B75",
"C. c #5A727E",
"Z. c #676F61",
"A. c #636669",
"S. c #64676C",
"D. c #64686D",
"F. c #666A6E",
"G. c #716B60",
"H. c #726C60",
"J. c #67716A",
"K. c #6F706A",
"L. c #767066",
"P. c #787165",
"I. c #7E7C67",
"U. c #757168",
"Y. c #767169",
"T. c #617277",
"R. c #697276",
"E. c #697379",
"W. c #717272",
"Q. c #717273",
"!. c #757473",
"~. c #717476",
"^. c #747576",
"/. c #7A7874",
"(. c #7A7976",
"). c #7B7A76",
"_. c #7E7B76",
"`. c #76787A",
"'. c #777A7B",
"]. c #7B7A79",
"[. c #7C7B78",
"{. c #7F7D79",
"}. c #787A7C",
"|. c #797B7C",
" X c #7A7B7C",
".X c #8B7955",
"XX c #887659",
"oX c #827662",
"OX c #8A7D65",
"+X c #877F72",
"@X c #807D74",
"#X c #807F74",
"$X c #968A55",
"%X c #868569",
"&X c #88836E",
"*X c #85827B",
"=X c #918B74",
"-X c #9C9772",
";X c #B1A571",
":X c #456085",
">X c #486589",
",X c #546F8D",
"<X c #6E7C83",
"1X c #778A90",
"2X c #7186A3",
"3X c #7C91AA",
"4X c #808282",
"5X c #C9D1D9",
/* pixels */
"          ).L.G.G.Y.).          ",
"      ).d.d s p w a p.P.[.      ",
"    @Xs.f f i.s o < i.XXoX_.    ",
"  !.8.i d j .X7.& ; 5.OXp.d.{.  ",
"  7.. + r u r.! V ` C b , 0.+X  ",
"^.e X # = - k H >X3X4.B z [ H.].",
"D.0 = x x z C ] 2X5X:XJ G Q ) D.",
"K.9.> 5 9 v m B 4.,X' C Q 3 % y.",
"&X$Xw.I P R  .F A _ F M Y 1 $ t.",
"&XZ.B.c.k.*.1.-.:.2.;.Y n 4 % A.",
"}.l.C.1XT.X.~ #.-.<.<.( t 5 y W.",
"  A.,.J.%X@.U +.-.#.| X.,.h.R.  ",
"  W.{ } -Xh.E R #.( P ( l.<X4X  ",
"    ~.I.;Xn.t : 4 E O.1.V. X    ",
"      *X=XM.r $ 7 o.z.E. X      ",
"          `.A.x.b.D. X          "
};
